<svg width="642" height="447" viewBox="0 0 642 447" fill="none" xmlns="http://www.w3.org/2000/svg">
<path d="M167.152 164.203C167.542 163.812 167.542 163.179 167.152 162.789L160.788 156.425C160.397 156.034 159.764 156.034 159.373 156.425C158.983 156.815 158.983 157.448 159.373 157.839L165.03 163.496L159.373 169.153C158.983 169.543 158.983 170.176 159.373 170.567C159.764 170.957 160.397 170.957 160.788 170.567L167.152 164.203ZM117.974 162.496C117.422 162.496 116.974 162.944 116.974 163.496C116.974 164.048 117.422 164.496 117.974 164.496V162.496ZM166.444 162.496H117.974V164.496H166.444V162.496Z" fill="url(#paint0_linear_2427_1778)"/>
<path d="M527.476 395.579C527.867 395.188 527.867 394.555 527.476 394.165L521.112 387.801C520.722 387.41 520.089 387.41 519.698 387.801C519.308 388.191 519.308 388.824 519.698 389.215L525.355 394.872L519.698 400.529C519.308 400.919 519.308 401.552 519.698 401.943C520.089 402.333 520.722 402.333 521.112 401.943L527.476 395.579ZM526.769 393.872H420.684V395.872H526.769V393.872Z" fill="url(#paint1_linear_2427_1778)"/>
<path d="M259.519 395.579C259.91 395.188 259.91 394.555 259.519 394.165L253.155 387.801C252.765 387.41 252.131 387.41 251.741 387.801C251.35 388.191 251.35 388.824 251.741 389.215L257.398 394.872L251.741 400.529C251.35 400.919 251.35 401.552 251.741 401.943C252.131 402.333 252.765 402.333 253.155 401.943L259.519 395.579ZM258.812 393.872L256.068 393.872L256.068 395.872L258.812 395.872L258.812 393.872Z" fill="#8497FF"/>
<rect x="1.41455" y="114.611" width="106.915" height="105.085" rx="52.5427" fill="white" fill-opacity="0.1"/>
<g clip-path="url(#clip0_2427_1778)">
<path fill-rule="evenodd" clip-rule="evenodd" d="M54.8718 152.154C52.282 152.154 49.7561 152.958 47.6429 154.455C45.5296 155.952 43.9333 158.068 43.0743 160.511L42.4443 162.301L40.5493 162.176C39.2112 162.086 37.8687 162.267 36.6016 162.706C35.3345 163.146 34.1688 163.836 33.1738 164.735C32.1788 165.634 31.3749 166.724 30.8098 167.941C30.2448 169.157 29.9301 170.475 29.8847 171.815C29.8392 173.155 30.0639 174.491 30.5452 175.743C31.0266 176.995 31.7548 178.137 32.6866 179.102C33.6184 180.066 34.7347 180.833 35.969 181.358C37.2034 181.882 38.5307 182.153 39.8718 182.154H72.3718C73.4361 182.153 74.488 181.925 75.4575 181.486C76.4271 181.047 77.2921 180.407 77.9951 179.608C78.6981 178.809 79.223 177.87 79.5349 176.852C79.8469 175.834 79.9386 174.762 79.8042 173.706C79.6697 172.651 79.3121 171.636 78.7551 170.729C78.1982 169.822 77.4545 169.044 76.5737 168.447C75.6928 167.849 74.695 167.446 73.6464 167.264C72.5977 167.082 71.5224 167.126 70.4918 167.391L67.3018 168.214L67.3693 164.919L67.3718 164.654C67.3718 161.339 66.0549 158.159 63.7107 155.815C61.3665 153.471 58.187 152.154 54.8718 152.154ZM39.0468 157.176C40.6521 153.773 43.3115 150.978 46.6307 149.205C49.9498 147.433 53.752 146.777 57.4731 147.336C61.1942 147.895 64.6362 149.638 67.2884 152.307C69.9407 154.976 71.6619 158.429 72.1968 162.154H72.3718C75.687 162.154 78.8665 163.471 81.2107 165.815C83.5549 168.159 84.8718 171.339 84.8718 174.654C84.8718 177.969 83.5549 181.149 81.2107 183.493C78.8665 185.837 75.687 187.154 72.3718 187.154H39.8718C35.9644 187.155 32.2108 185.631 29.4098 182.907C26.6087 180.182 24.9813 176.473 24.8738 172.567C24.7663 168.661 26.1872 164.867 28.8342 161.993C31.4812 159.118 35.1453 157.39 39.0468 157.176Z" fill="white"/>
</g>
<rect x="1.41455" y="114.611" width="106.915" height="105.085" rx="52.5427" stroke="black"/>
<path d="M228.718 231.171L228.718 365.607L226.718 365.607L226.718 231.171L228.718 231.171ZM228.718 365.607C228.718 381.217 241.373 393.872 256.983 393.872L256.983 395.872C240.268 395.872 226.718 382.322 226.718 365.607L228.718 365.607Z" fill="url(#paint2_linear_2427_1778)"/>
<path d="M244.402 108.379C244.519 108.919 245.052 109.261 245.591 109.144L254.386 107.232C254.926 107.115 255.268 106.582 255.151 106.043C255.033 105.503 254.501 105.161 253.961 105.278L246.144 106.977L244.444 99.1598C244.327 98.6201 243.794 98.2777 243.255 98.395C242.715 98.5123 242.373 99.0449 242.49 99.5846L244.402 108.379ZM284.285 266.43C284.818 266.282 285.13 265.732 284.983 265.199L282.582 256.525C282.435 255.993 281.884 255.681 281.352 255.828C280.819 255.976 280.507 256.526 280.655 257.059L282.788 264.769L275.078 266.903C274.546 267.05 274.234 267.601 274.381 268.133C274.528 268.665 275.079 268.977 275.611 268.83L284.285 266.43ZM434.73 223.129C434.582 222.597 434.031 222.286 433.499 222.434L424.829 224.849C424.297 224.997 423.985 225.549 424.134 226.081C424.282 226.613 424.833 226.924 425.365 226.776L433.072 224.629L435.218 232.336C435.367 232.868 435.918 233.179 436.45 233.031C436.982 232.883 437.293 232.331 437.145 231.799L434.73 223.129ZM392.534 71.1762C392 71.3181 391.682 71.8658 391.824 72.3995L394.136 81.0976C394.278 81.6313 394.826 81.949 395.359 81.8071C395.893 81.6653 396.211 81.1176 396.069 80.5838L394.014 72.8523L401.745 70.7973C402.279 70.6555 402.597 70.1078 402.455 69.574C402.313 69.0403 401.765 68.7226 401.232 68.8644L392.534 71.1762ZM246.22 108.708C256.128 93.2952 269.754 80.539 285.814 71.7295L284.852 69.976C268.497 78.9472 254.625 91.9354 244.538 107.626L246.22 108.708ZM284.512 264.596C269.017 255.818 255.859 243.338 246.22 228.344L244.538 229.426C254.351 244.69 267.747 257.397 283.526 266.336L284.512 264.596ZM432.896 222.906C423.066 240.326 408.658 254.777 391.326 264.596L392.312 266.336C409.962 256.337 424.63 241.624 434.638 223.889L432.896 222.906ZM392.289 73.0077C409.192 82.8125 423.248 97.0493 432.896 114.145L434.638 113.163C424.816 95.7573 410.505 81.262 393.292 71.2777L392.289 73.0077Z" fill="url(#paint3_linear_2427_1778)"/>
<path d="M324.845 275.625C324.845 275.685 324.821 275.739 324.773 275.787C324.737 275.823 324.689 275.841 324.629 275.841H318.509C318.449 275.841 318.419 275.871 318.419 275.931V279.297C318.419 279.357 318.449 279.387 318.509 279.387H322.631C322.691 279.387 322.739 279.411 322.775 279.459C322.823 279.495 322.847 279.543 322.847 279.603V280.971C322.847 281.031 322.823 281.085 322.775 281.133C322.739 281.169 322.691 281.187 322.631 281.187H318.509C318.449 281.187 318.419 281.217 318.419 281.277V286.425C318.419 286.485 318.395 286.539 318.347 286.587C318.311 286.623 318.263 286.641 318.203 286.641H316.547C316.487 286.641 316.433 286.623 316.385 286.587C316.349 286.539 316.331 286.485 316.331 286.425V274.257C316.331 274.197 316.349 274.149 316.385 274.113C316.433 274.065 316.487 274.041 316.547 274.041H324.629C324.689 274.041 324.737 274.065 324.773 274.113C324.821 274.149 324.845 274.197 324.845 274.257V275.625ZM329.413 277.299C330.169 277.299 330.835 277.431 331.411 277.695C331.987 277.959 332.431 278.325 332.743 278.793C333.055 279.249 333.211 279.771 333.211 280.359V286.425C333.211 286.485 333.187 286.539 333.139 286.587C333.103 286.623 333.055 286.641 332.995 286.641H331.339C331.279 286.641 331.225 286.623 331.177 286.587C331.141 286.539 331.123 286.485 331.123 286.425V285.849C331.123 285.813 331.111 285.795 331.087 285.795C331.063 285.783 331.039 285.789 331.015 285.813C330.427 286.461 329.575 286.785 328.459 286.785C327.559 286.785 326.815 286.557 326.227 286.101C325.651 285.645 325.363 284.967 325.363 284.067C325.363 283.131 325.687 282.405 326.335 281.889C326.995 281.361 327.919 281.097 329.107 281.097H331.033C331.093 281.097 331.123 281.067 331.123 281.007V280.575C331.123 280.107 330.985 279.747 330.709 279.495C330.433 279.231 330.019 279.099 329.467 279.099C329.011 279.099 328.639 279.183 328.351 279.351C328.075 279.507 327.901 279.729 327.829 280.017C327.793 280.161 327.709 280.221 327.577 280.197L325.831 279.981C325.771 279.969 325.717 279.951 325.669 279.927C325.633 279.891 325.621 279.849 325.633 279.801C325.729 279.069 326.119 278.469 326.803 278.001C327.499 277.533 328.369 277.299 329.413 277.299ZM328.981 285.129C329.569 285.129 330.073 284.973 330.493 284.661C330.913 284.349 331.123 283.953 331.123 283.473V282.627C331.123 282.567 331.093 282.537 331.033 282.537H329.521C328.885 282.537 328.381 282.657 328.009 282.897C327.649 283.137 327.469 283.479 327.469 283.923C327.469 284.307 327.607 284.607 327.883 284.823C328.171 285.027 328.537 285.129 328.981 285.129ZM336.895 276.183C336.523 276.183 336.217 276.063 335.977 275.823C335.737 275.583 335.617 275.277 335.617 274.905C335.617 274.533 335.737 274.227 335.977 273.987C336.217 273.747 336.523 273.627 336.895 273.627C337.267 273.627 337.573 273.747 337.813 273.987C338.053 274.227 338.173 274.533 338.173 274.905C338.173 275.277 338.053 275.583 337.813 275.823C337.573 276.063 337.267 276.183 336.895 276.183ZM336.031 286.641C335.971 286.641 335.917 286.623 335.869 286.587C335.833 286.539 335.815 286.485 335.815 286.425V277.641C335.815 277.581 335.833 277.533 335.869 277.497C335.917 277.449 335.971 277.425 336.031 277.425H337.687C337.747 277.425 337.795 277.449 337.831 277.497C337.879 277.533 337.903 277.581 337.903 277.641V286.425C337.903 286.485 337.879 286.539 337.831 286.587C337.795 286.623 337.747 286.641 337.687 286.641H336.031ZM340.911 286.641C340.851 286.641 340.797 286.623 340.749 286.587C340.713 286.539 340.695 286.485 340.695 286.425V274.257C340.695 274.197 340.713 274.149 340.749 274.113C340.797 274.065 340.851 274.041 340.911 274.041H342.567C342.627 274.041 342.675 274.065 342.711 274.113C342.759 274.149 342.783 274.197 342.783 274.257V286.425C342.783 286.485 342.759 286.539 342.711 286.587C342.675 286.623 342.627 286.641 342.567 286.641H340.911ZM353.159 281.007C353.207 281.307 353.231 281.643 353.231 282.015L353.213 282.573C353.213 282.717 353.141 282.789 352.997 282.789H347.363C347.303 282.789 347.273 282.819 347.273 282.879C347.309 283.275 347.363 283.545 347.435 283.689C347.723 284.553 348.425 284.991 349.541 285.003C350.357 285.003 351.005 284.667 351.485 283.995C351.533 283.923 351.593 283.887 351.665 283.887C351.713 283.887 351.755 283.905 351.791 283.941L352.907 284.859C353.015 284.943 353.033 285.039 352.961 285.147C352.589 285.675 352.091 286.083 351.467 286.371C350.855 286.659 350.171 286.803 349.415 286.803C348.479 286.803 347.681 286.593 347.021 286.173C346.373 285.753 345.899 285.165 345.599 284.409C345.323 283.761 345.185 282.861 345.185 281.709C345.185 281.013 345.257 280.449 345.401 280.017C345.641 279.177 346.091 278.517 346.751 278.037C347.423 277.545 348.227 277.299 349.163 277.299C351.527 277.299 352.859 278.535 353.159 281.007ZM349.163 279.099C348.719 279.099 348.347 279.213 348.047 279.441C347.759 279.657 347.555 279.963 347.435 280.359C347.363 280.563 347.315 280.827 347.291 281.151C347.267 281.211 347.291 281.241 347.363 281.241H351.017C351.077 281.241 351.107 281.211 351.107 281.151C351.083 280.851 351.047 280.623 350.999 280.467C350.891 280.035 350.675 279.699 350.351 279.459C350.039 279.219 349.643 279.099 349.163 279.099ZM361.246 274.257C361.246 274.197 361.264 274.149 361.3 274.113C361.348 274.065 361.402 274.041 361.462 274.041H363.118C363.178 274.041 363.226 274.065 363.262 274.113C363.31 274.149 363.334 274.197 363.334 274.257V286.425C363.334 286.485 363.31 286.539 363.262 286.587C363.226 286.623 363.178 286.641 363.118 286.641H361.462C361.402 286.641 361.348 286.623 361.3 286.587C361.264 286.539 361.246 286.485 361.246 286.425V285.885C361.246 285.849 361.234 285.825 361.21 285.813C361.186 285.801 361.162 285.813 361.138 285.849C360.61 286.473 359.92 286.785 359.068 286.785C358.216 286.785 357.496 286.563 356.908 286.119C356.32 285.675 355.894 285.057 355.63 284.265C355.414 283.593 355.306 282.843 355.306 282.015C355.306 281.163 355.408 280.431 355.612 279.819C355.876 279.027 356.302 278.409 356.89 277.965C357.478 277.521 358.216 277.299 359.104 277.299C359.932 277.299 360.61 277.599 361.138 278.199C361.162 278.223 361.186 278.235 361.21 278.235C361.234 278.223 361.246 278.199 361.246 278.163V274.257ZM360.814 284.121C361.09 283.629 361.228 282.933 361.228 282.033C361.228 281.097 361.078 280.383 360.778 279.891C360.454 279.363 359.998 279.099 359.41 279.099C358.798 279.099 358.318 279.351 357.97 279.855C357.61 280.383 357.43 281.115 357.43 282.051C357.43 282.891 357.574 283.581 357.862 284.121C358.198 284.697 358.708 284.985 359.392 284.985C360.004 284.985 360.478 284.697 360.814 284.121Z" fill="white"/>
<rect x="293.65" y="234" width="92.1966" height="91.2821" rx="45.641" stroke="#FF4264" stroke-width="2"/>
<path d="M429.513 161.536C430.269 161.536 430.935 161.692 431.511 162.004C432.087 162.316 432.531 162.76 432.843 163.336C433.167 163.9 433.329 164.554 433.329 165.298C433.329 166.03 433.167 166.678 432.843 167.242C432.519 167.806 432.057 168.244 431.457 168.556C430.869 168.856 430.185 169.006 429.405 169.006H426.525C426.465 169.006 426.435 169.036 426.435 169.096V173.938C426.435 173.998 426.411 174.052 426.363 174.1C426.327 174.136 426.279 174.154 426.219 174.154H424.563C424.503 174.154 424.449 174.136 424.401 174.1C424.365 174.052 424.347 173.998 424.347 173.938V161.752C424.347 161.692 424.365 161.644 424.401 161.608C424.449 161.56 424.503 161.536 424.563 161.536H429.513ZM429.207 167.314C429.819 167.314 430.311 167.134 430.683 166.774C431.055 166.414 431.241 165.94 431.241 165.352C431.241 164.752 431.055 164.266 430.683 163.894C430.311 163.522 429.819 163.336 429.207 163.336H426.525C426.465 163.336 426.435 163.366 426.435 163.426V167.224C426.435 167.284 426.465 167.314 426.525 167.314H429.207ZM438.767 164.812C439.523 164.812 440.189 164.944 440.765 165.208C441.341 165.472 441.785 165.838 442.097 166.306C442.409 166.762 442.565 167.284 442.565 167.872V173.938C442.565 173.998 442.541 174.052 442.493 174.1C442.457 174.136 442.409 174.154 442.349 174.154H440.693C440.633 174.154 440.579 174.136 440.531 174.1C440.495 174.052 440.477 173.998 440.477 173.938V173.362C440.477 173.326 440.465 173.308 440.441 173.308C440.417 173.296 440.393 173.302 440.369 173.326C439.781 173.974 438.929 174.298 437.813 174.298C436.913 174.298 436.169 174.07 435.581 173.614C435.005 173.158 434.717 172.48 434.717 171.58C434.717 170.644 435.041 169.918 435.689 169.402C436.349 168.874 437.273 168.61 438.461 168.61H440.387C440.447 168.61 440.477 168.58 440.477 168.52V168.088C440.477 167.62 440.339 167.26 440.063 167.008C439.787 166.744 439.373 166.612 438.821 166.612C438.365 166.612 437.993 166.696 437.705 166.864C437.429 167.02 437.255 167.242 437.183 167.53C437.147 167.674 437.063 167.734 436.931 167.71L435.185 167.494C435.125 167.482 435.071 167.464 435.023 167.44C434.987 167.404 434.975 167.362 434.987 167.314C435.083 166.582 435.473 165.982 436.157 165.514C436.853 165.046 437.723 164.812 438.767 164.812ZM438.335 172.642C438.923 172.642 439.427 172.486 439.847 172.174C440.267 171.862 440.477 171.466 440.477 170.986V170.14C440.477 170.08 440.447 170.05 440.387 170.05H438.875C438.239 170.05 437.735 170.17 437.363 170.41C437.003 170.65 436.823 170.992 436.823 171.436C436.823 171.82 436.961 172.12 437.237 172.336C437.525 172.54 437.891 172.642 438.335 172.642ZM450.497 165.172C450.497 165.112 450.515 165.064 450.551 165.028C450.599 164.98 450.653 164.956 450.713 164.956H452.351C452.411 164.956 452.459 164.98 452.495 165.028C452.543 165.064 452.567 165.112 452.567 165.172V173.938C452.567 173.998 452.543 174.052 452.495 174.1C452.459 174.136 452.411 174.154 452.351 174.154H450.713C450.653 174.154 450.599 174.136 450.551 174.1C450.515 174.052 450.497 173.998 450.497 173.938V173.362C450.497 173.326 450.485 173.302 450.461 173.29C450.437 173.278 450.413 173.29 450.389 173.326C449.897 173.962 449.159 174.28 448.175 174.28C447.263 174.28 446.495 174.016 445.871 173.488C445.259 172.96 444.953 172.21 444.953 171.238V165.172C444.953 165.112 444.971 165.064 445.007 165.028C445.055 164.98 445.109 164.956 445.169 164.956H446.825C446.885 164.956 446.933 164.98 446.969 165.028C447.017 165.064 447.041 165.112 447.041 165.172V170.644C447.041 171.208 447.185 171.658 447.473 171.994C447.773 172.33 448.187 172.498 448.715 172.498C449.255 172.498 449.687 172.33 450.011 171.994C450.335 171.658 450.497 171.208 450.497 170.644V165.172ZM458.619 174.262C457.863 174.262 457.197 174.154 456.621 173.938C456.057 173.71 455.619 173.404 455.307 173.02C454.995 172.624 454.839 172.186 454.839 171.706V171.544C454.839 171.484 454.857 171.436 454.893 171.4C454.941 171.352 454.995 171.328 455.055 171.328H456.639C456.699 171.328 456.747 171.352 456.783 171.4C456.831 171.436 456.855 171.484 456.855 171.544V171.58C456.855 171.88 457.017 172.144 457.341 172.372C457.677 172.588 458.097 172.696 458.601 172.696C459.081 172.696 459.471 172.6 459.771 172.408C460.071 172.204 460.221 171.952 460.221 171.652C460.221 171.376 460.095 171.172 459.843 171.04C459.603 170.896 459.207 170.746 458.655 170.59L457.971 170.374C457.359 170.194 456.843 170.002 456.423 169.798C456.003 169.594 455.649 169.318 455.361 168.97C455.073 168.61 454.929 168.154 454.929 167.602C454.929 166.762 455.259 166.096 455.919 165.604C456.579 165.1 457.449 164.848 458.529 164.848C459.261 164.848 459.903 164.968 460.455 165.208C461.007 165.436 461.433 165.76 461.733 166.18C462.033 166.588 462.183 167.056 462.183 167.584C462.183 167.644 462.159 167.698 462.111 167.746C462.075 167.782 462.027 167.8 461.967 167.8H460.437C460.377 167.8 460.323 167.782 460.275 167.746C460.239 167.698 460.221 167.644 460.221 167.584C460.221 167.272 460.065 167.014 459.753 166.81C459.453 166.594 459.039 166.486 458.511 166.486C458.043 166.486 457.659 166.576 457.359 166.756C457.071 166.924 456.927 167.164 456.927 167.476C456.927 167.764 457.065 167.986 457.341 168.142C457.629 168.286 458.103 168.448 458.763 168.628L459.159 168.736C459.795 168.928 460.329 169.126 460.761 169.33C461.193 169.522 461.559 169.798 461.859 170.158C462.159 170.506 462.309 170.962 462.309 171.526C462.309 172.378 461.973 173.05 461.301 173.542C460.629 174.022 459.735 174.262 458.619 174.262ZM472.234 168.52C472.282 168.82 472.306 169.156 472.306 169.528L472.288 170.086C472.288 170.23 472.216 170.302 472.072 170.302H466.438C466.378 170.302 466.348 170.332 466.348 170.392C466.384 170.788 466.438 171.058 466.51 171.202C466.798 172.066 467.5 172.504 468.616 172.516C469.432 172.516 470.08 172.18 470.56 171.508C470.608 171.436 470.668 171.4 470.74 171.4C470.788 171.4 470.83 171.418 470.866 171.454L471.982 172.372C472.09 172.456 472.108 172.552 472.036 172.66C471.664 173.188 471.166 173.596 470.542 173.884C469.93 174.172 469.246 174.316 468.49 174.316C467.554 174.316 466.756 174.106 466.096 173.686C465.448 173.266 464.974 172.678 464.674 171.922C464.398 171.274 464.26 170.374 464.26 169.222C464.26 168.526 464.332 167.962 464.476 167.53C464.716 166.69 465.166 166.03 465.826 165.55C466.498 165.058 467.302 164.812 468.238 164.812C470.602 164.812 471.934 166.048 472.234 168.52ZM468.238 166.612C467.794 166.612 467.422 166.726 467.122 166.954C466.834 167.17 466.63 167.476 466.51 167.872C466.438 168.076 466.39 168.34 466.366 168.664C466.342 168.724 466.366 168.754 466.438 168.754H470.092C470.152 168.754 470.182 168.724 470.182 168.664C470.158 168.364 470.122 168.136 470.074 167.98C469.966 167.548 469.75 167.212 469.426 166.972C469.114 166.732 468.718 166.612 468.238 166.612Z" fill="white"/>
<rect x="402.479" y="121.513" width="91.2821" height="91.2821" rx="45.641" stroke="#FFCD6A" stroke-width="2"/>
<path d="M325.785 64.4103C325.665 64.4103 325.581 64.3563 325.533 64.2483L323.157 59.0643C323.133 59.0163 323.097 58.9923 323.049 58.9923H320.889C320.829 58.9923 320.799 59.0223 320.799 59.0823V64.1943C320.799 64.2543 320.775 64.3083 320.727 64.3563C320.691 64.3923 320.643 64.4103 320.583 64.4103H318.927C318.867 64.4103 318.813 64.3923 318.765 64.3563C318.729 64.3083 318.711 64.2543 318.711 64.1943V52.0263C318.711 51.9663 318.729 51.9183 318.765 51.8823C318.813 51.8343 318.867 51.8103 318.927 51.8103H323.877C324.609 51.8103 325.257 51.9663 325.821 52.2783C326.385 52.5783 326.823 53.0103 327.135 53.5743C327.447 54.1263 327.603 54.7623 327.603 55.4823C327.603 56.3103 327.387 57.0183 326.955 57.6063C326.535 58.1823 325.947 58.5843 325.191 58.8123C325.167 58.8123 325.149 58.8243 325.137 58.8483C325.125 58.8723 325.125 58.8963 325.137 58.9203L327.675 64.1583C327.699 64.2063 327.711 64.2423 327.711 64.2663C327.711 64.3623 327.645 64.4103 327.513 64.4103H325.785ZM320.889 53.6103C320.829 53.6103 320.799 53.6403 320.799 53.7003V57.2823C320.799 57.3423 320.829 57.3723 320.889 57.3723H323.589C324.165 57.3723 324.627 57.2043 324.975 56.8683C325.335 56.5203 325.515 56.0643 325.515 55.5003C325.515 54.9363 325.335 54.4803 324.975 54.1323C324.627 53.7843 324.165 53.6103 323.589 53.6103H320.889ZM337.605 58.7763C337.653 59.0763 337.677 59.4123 337.677 59.7843L337.659 60.3423C337.659 60.4863 337.587 60.5583 337.443 60.5583H331.809C331.749 60.5583 331.719 60.5883 331.719 60.6483C331.755 61.0443 331.809 61.3143 331.881 61.4583C332.169 62.3223 332.871 62.7603 333.987 62.7723C334.803 62.7723 335.451 62.4363 335.931 61.7643C335.979 61.6923 336.039 61.6563 336.111 61.6563C336.159 61.6563 336.201 61.6743 336.237 61.7103L337.353 62.6283C337.461 62.7123 337.479 62.8083 337.407 62.9163C337.035 63.4443 336.537 63.8523 335.913 64.1403C335.301 64.4283 334.617 64.5723 333.861 64.5723C332.925 64.5723 332.127 64.3623 331.467 63.9423C330.819 63.5223 330.345 62.9343 330.045 62.1783C329.769 61.5303 329.631 60.6303 329.631 59.4783C329.631 58.7823 329.703 58.2183 329.847 57.7863C330.087 56.9463 330.537 56.2863 331.197 55.8063C331.869 55.3143 332.673 55.0683 333.609 55.0683C335.973 55.0683 337.305 56.3043 337.605 58.7763ZM333.609 56.8683C333.165 56.8683 332.793 56.9823 332.493 57.2103C332.205 57.4263 332.001 57.7323 331.881 58.1283C331.809 58.3323 331.761 58.5963 331.737 58.9203C331.713 58.9803 331.737 59.0103 331.809 59.0103H335.463C335.523 59.0103 335.553 58.9803 335.553 58.9203C335.529 58.6203 335.493 58.3923 335.445 58.2363C335.337 57.8043 335.121 57.4683 334.797 57.2283C334.485 56.9883 334.089 56.8683 333.609 56.8683ZM344.687 56.6883C344.687 56.7483 344.663 56.8023 344.615 56.8503C344.579 56.8863 344.531 56.9043 344.471 56.9043H342.635C342.575 56.9043 342.545 56.9343 342.545 56.9943V61.3323C342.545 61.7883 342.641 62.1183 342.833 62.3223C343.037 62.5263 343.355 62.6283 343.787 62.6283H344.327C344.387 62.6283 344.435 62.6523 344.471 62.7003C344.519 62.7363 344.543 62.7843 344.543 62.8443V64.1943C344.543 64.3263 344.471 64.4043 344.327 64.4283L343.391 64.4463C342.443 64.4463 341.735 64.2843 341.267 63.9603C340.799 63.6363 340.559 63.0243 340.547 62.1243V56.9943C340.547 56.9343 340.517 56.9043 340.457 56.9043H339.431C339.371 56.9043 339.317 56.8863 339.269 56.8503C339.233 56.8023 339.215 56.7483 339.215 56.6883V55.4283C339.215 55.3683 339.233 55.3203 339.269 55.2843C339.317 55.2363 339.371 55.2123 339.431 55.2123H340.457C340.517 55.2123 340.547 55.1823 340.547 55.1223V53.0163C340.547 52.9563 340.565 52.9083 340.601 52.8723C340.649 52.8243 340.703 52.8003 340.763 52.8003H342.329C342.389 52.8003 342.437 52.8243 342.473 52.8723C342.521 52.9083 342.545 52.9563 342.545 53.0163V55.1223C342.545 55.1823 342.575 55.2123 342.635 55.2123H344.471C344.531 55.2123 344.579 55.2363 344.615 55.2843C344.663 55.3203 344.687 55.3683 344.687 55.4283V56.6883ZM351.226 55.1043C351.61 55.1043 351.946 55.1823 352.234 55.3383C352.33 55.3863 352.366 55.4763 352.342 55.6083L352.036 57.2283C352.024 57.3723 351.94 57.4143 351.784 57.3543C351.604 57.2943 351.394 57.2643 351.154 57.2643C350.998 57.2643 350.878 57.2703 350.794 57.2823C350.29 57.3063 349.87 57.4863 349.534 57.8223C349.198 58.1463 349.03 58.5723 349.03 59.1003V64.1943C349.03 64.2543 349.006 64.3083 348.958 64.3563C348.922 64.3923 348.874 64.4103 348.814 64.4103H347.158C347.098 64.4103 347.044 64.3923 346.996 64.3563C346.96 64.3083 346.942 64.2543 346.942 64.1943V55.4283C346.942 55.3683 346.96 55.3203 346.996 55.2843C347.044 55.2363 347.098 55.2123 347.158 55.2123H348.814C348.874 55.2123 348.922 55.2363 348.958 55.2843C349.006 55.3203 349.03 55.3683 349.03 55.4283V56.2383C349.03 56.2863 349.036 56.3163 349.048 56.3283C349.072 56.3283 349.096 56.3103 349.12 56.2743C349.624 55.4943 350.326 55.1043 351.226 55.1043ZM354.228 67.9923C354.192 67.9923 354.162 67.9683 354.138 67.9203C354.114 67.8843 354.102 67.8363 354.102 67.7763V66.4803C354.102 66.4203 354.12 66.3663 354.156 66.3183C354.204 66.2823 354.258 66.2643 354.318 66.2643H354.336C354.828 66.2523 355.212 66.1983 355.488 66.1023C355.764 66.0183 355.992 65.8503 356.172 65.5983C356.352 65.3463 356.514 64.9683 356.658 64.4643C356.67 64.4403 356.67 64.4043 356.658 64.3563L353.688 55.4463C353.676 55.4223 353.67 55.3923 353.67 55.3563C353.67 55.2483 353.73 55.1943 353.85 55.1943H355.614C355.746 55.1943 355.83 55.2543 355.866 55.3743L357.666 61.7103C357.678 61.7463 357.696 61.7643 357.72 61.7643C357.744 61.7643 357.762 61.7463 357.774 61.7103L359.574 55.3743C359.61 55.2543 359.694 55.1943 359.826 55.1943H361.536C361.608 55.1943 361.656 55.2183 361.68 55.2663C361.716 55.3023 361.722 55.3623 361.698 55.4463L358.53 64.9143C358.23 65.7663 357.936 66.4023 357.648 66.8223C357.36 67.2423 356.964 67.5423 356.46 67.7223C355.968 67.9023 355.266 67.9923 354.354 67.9923H354.228Z" fill="white"/>
<rect x="293.65" y="11.7693" width="92.1966" height="91.2821" rx="45.641" stroke="#91EBFF" stroke-width="2"/>
<rect x="175.59" y="114.111" width="105.171" height="105.171" rx="52.5855" fill="url(#paint4_linear_2427_1778)"/>
<path d="M199.277 173.697C199.157 173.697 199.073 173.643 199.025 173.535L196.649 168.351C196.625 168.303 196.589 168.279 196.541 168.279H194.381C194.321 168.279 194.291 168.309 194.291 168.369V173.481C194.291 173.541 194.267 173.595 194.219 173.643C194.183 173.679 194.135 173.697 194.075 173.697H192.419C192.359 173.697 192.305 173.679 192.257 173.643C192.221 173.595 192.203 173.541 192.203 173.481V161.313C192.203 161.253 192.221 161.205 192.257 161.169C192.305 161.121 192.359 161.097 192.419 161.097H197.369C198.101 161.097 198.749 161.253 199.313 161.565C199.877 161.865 200.315 162.297 200.627 162.861C200.939 163.413 201.095 164.049 201.095 164.769C201.095 165.597 200.879 166.305 200.447 166.893C200.027 167.469 199.439 167.871 198.683 168.099C198.659 168.099 198.641 168.111 198.629 168.135C198.617 168.159 198.617 168.183 198.629 168.207L201.167 173.445C201.191 173.493 201.203 173.529 201.203 173.553C201.203 173.649 201.137 173.697 201.005 173.697H199.277ZM194.381 162.897C194.321 162.897 194.291 162.927 194.291 162.987V166.569C194.291 166.629 194.321 166.659 194.381 166.659H197.081C197.657 166.659 198.119 166.491 198.467 166.155C198.827 165.807 199.007 165.351 199.007 164.787C199.007 164.223 198.827 163.767 198.467 163.419C198.119 163.071 197.657 162.897 197.081 162.897H194.381ZM208.881 164.715C208.881 164.655 208.899 164.607 208.935 164.571C208.983 164.523 209.037 164.499 209.097 164.499H210.735C210.795 164.499 210.843 164.523 210.879 164.571C210.927 164.607 210.951 164.655 210.951 164.715V173.481C210.951 173.541 210.927 173.595 210.879 173.643C210.843 173.679 210.795 173.697 210.735 173.697H209.097C209.037 173.697 208.983 173.679 208.935 173.643C208.899 173.595 208.881 173.541 208.881 173.481V172.905C208.881 172.869 208.869 172.845 208.845 172.833C208.821 172.821 208.797 172.833 208.773 172.869C208.281 173.505 207.543 173.823 206.559 173.823C205.647 173.823 204.879 173.559 204.255 173.031C203.643 172.503 203.337 171.753 203.337 170.781V164.715C203.337 164.655 203.355 164.607 203.391 164.571C203.439 164.523 203.493 164.499 203.553 164.499H205.209C205.269 164.499 205.317 164.523 205.353 164.571C205.401 164.607 205.425 164.655 205.425 164.715V170.187C205.425 170.751 205.569 171.201 205.857 171.537C206.157 171.873 206.571 172.041 207.099 172.041C207.639 172.041 208.071 171.873 208.395 171.537C208.719 171.201 208.881 170.751 208.881 170.187V164.715ZM217.993 164.355C218.965 164.355 219.739 164.643 220.315 165.219C220.903 165.795 221.197 166.581 221.197 167.577V173.481C221.197 173.541 221.173 173.595 221.125 173.643C221.089 173.679 221.041 173.697 220.981 173.697H219.325C219.265 173.697 219.211 173.679 219.163 173.643C219.127 173.595 219.109 173.541 219.109 173.481V168.009C219.109 167.457 218.953 167.013 218.641 166.677C218.329 166.329 217.915 166.155 217.399 166.155C216.883 166.155 216.463 166.323 216.139 166.659C215.827 166.995 215.671 167.439 215.671 167.991V173.481C215.671 173.541 215.647 173.595 215.599 173.643C215.563 173.679 215.515 173.697 215.455 173.697H213.799C213.739 173.697 213.685 173.679 213.637 173.643C213.601 173.595 213.583 173.541 213.583 173.481V164.715C213.583 164.655 213.601 164.607 213.637 164.571C213.685 164.523 213.739 164.499 213.799 164.499H215.455C215.515 164.499 215.563 164.523 215.599 164.571C215.647 164.607 215.671 164.655 215.671 164.715V165.291C215.671 165.327 215.683 165.351 215.707 165.363C215.731 165.375 215.749 165.363 215.761 165.327C216.253 164.679 216.997 164.355 217.993 164.355ZM236.255 161.097C236.315 161.097 236.363 161.121 236.399 161.169C236.447 161.205 236.471 161.253 236.471 161.313V162.699C236.471 162.759 236.447 162.813 236.399 162.861C236.363 162.897 236.315 162.915 236.255 162.915H232.943C232.883 162.915 232.853 162.945 232.853 163.005V173.481C232.853 173.541 232.829 173.595 232.781 173.643C232.745 173.679 232.697 173.697 232.637 173.697H230.981C230.921 173.697 230.867 173.679 230.819 173.643C230.783 173.595 230.765 173.541 230.765 173.481V163.005C230.765 162.945 230.735 162.915 230.675 162.915H227.489C227.429 162.915 227.375 162.897 227.327 162.861C227.291 162.813 227.273 162.759 227.273 162.699V161.313C227.273 161.253 227.291 161.205 227.327 161.169C227.375 161.121 227.429 161.097 227.489 161.097H236.255ZM241.601 164.355C242.357 164.355 243.023 164.487 243.599 164.751C244.175 165.015 244.619 165.381 244.931 165.849C245.243 166.305 245.399 166.827 245.399 167.415V173.481C245.399 173.541 245.375 173.595 245.327 173.643C245.291 173.679 245.243 173.697 245.183 173.697H243.527C243.467 173.697 243.413 173.679 243.365 173.643C243.329 173.595 243.311 173.541 243.311 173.481V172.905C243.311 172.869 243.299 172.851 243.275 172.851C243.251 172.839 243.227 172.845 243.203 172.869C242.615 173.517 241.763 173.841 240.647 173.841C239.747 173.841 239.003 173.613 238.415 173.157C237.839 172.701 237.551 172.023 237.551 171.123C237.551 170.187 237.875 169.461 238.523 168.945C239.183 168.417 240.107 168.153 241.295 168.153H243.221C243.281 168.153 243.311 168.123 243.311 168.063V167.631C243.311 167.163 243.173 166.803 242.897 166.551C242.621 166.287 242.207 166.155 241.655 166.155C241.199 166.155 240.827 166.239 240.539 166.407C240.263 166.563 240.089 166.785 240.017 167.073C239.981 167.217 239.897 167.277 239.765 167.253L238.019 167.037C237.959 167.025 237.905 167.007 237.857 166.983C237.821 166.947 237.809 166.905 237.821 166.857C237.917 166.125 238.307 165.525 238.991 165.057C239.687 164.589 240.557 164.355 241.601 164.355ZM241.169 172.185C241.757 172.185 242.261 172.029 242.681 171.717C243.101 171.405 243.311 171.009 243.311 170.529V169.683C243.311 169.623 243.281 169.593 243.221 169.593H241.709C241.073 169.593 240.569 169.713 240.197 169.953C239.837 170.193 239.657 170.535 239.657 170.979C239.657 171.363 239.795 171.663 240.071 171.879C240.359 172.083 240.725 172.185 241.169 172.185ZM251.316 173.805C250.56 173.805 249.894 173.697 249.318 173.481C248.754 173.253 248.316 172.947 248.004 172.563C247.692 172.167 247.536 171.729 247.536 171.249V171.087C247.536 171.027 247.554 170.979 247.59 170.943C247.638 170.895 247.692 170.871 247.752 170.871H249.336C249.396 170.871 249.444 170.895 249.48 170.943C249.528 170.979 249.552 171.027 249.552 171.087V171.123C249.552 171.423 249.714 171.687 250.038 171.915C250.374 172.131 250.794 172.239 251.298 172.239C251.778 172.239 252.168 172.143 252.468 171.951C252.768 171.747 252.918 171.495 252.918 171.195C252.918 170.919 252.792 170.715 252.54 170.583C252.3 170.439 251.904 170.289 251.352 170.133L250.668 169.917C250.056 169.737 249.54 169.545 249.12 169.341C248.7 169.137 248.346 168.861 248.058 168.513C247.77 168.153 247.626 167.697 247.626 167.145C247.626 166.305 247.956 165.639 248.616 165.147C249.276 164.643 250.146 164.391 251.226 164.391C251.958 164.391 252.6 164.511 253.152 164.751C253.704 164.979 254.13 165.303 254.43 165.723C254.73 166.131 254.88 166.599 254.88 167.127C254.88 167.187 254.856 167.241 254.808 167.289C254.772 167.325 254.724 167.343 254.664 167.343H253.134C253.074 167.343 253.02 167.325 252.972 167.289C252.936 167.241 252.918 167.187 252.918 167.127C252.918 166.815 252.762 166.557 252.45 166.353C252.15 166.137 251.736 166.029 251.208 166.029C250.74 166.029 250.356 166.119 250.056 166.299C249.768 166.467 249.624 166.707 249.624 167.019C249.624 167.307 249.762 167.529 250.038 167.685C250.326 167.829 250.8 167.991 251.46 168.171L251.856 168.279C252.492 168.471 253.026 168.669 253.458 168.873C253.89 169.065 254.256 169.341 254.556 169.701C254.856 170.049 255.006 170.505 255.006 171.069C255.006 171.921 254.67 172.593 253.998 173.085C253.326 173.565 252.432 173.805 251.316 173.805ZM257.389 173.697C257.329 173.697 257.275 173.679 257.227 173.643C257.191 173.595 257.173 173.541 257.173 173.481V161.313C257.173 161.253 257.191 161.205 257.227 161.169C257.275 161.121 257.329 161.097 257.389 161.097H259.045C259.105 161.097 259.153 161.121 259.189 161.169C259.237 161.205 259.261 161.253 259.261 161.313V167.811C259.261 167.847 259.273 167.871 259.297 167.883C259.321 167.895 259.345 167.883 259.369 167.847L262.285 164.625C262.369 164.541 262.459 164.499 262.555 164.499H264.463C264.583 164.499 264.643 164.541 264.643 164.625C264.643 164.661 264.625 164.709 264.589 164.769L262.303 167.505C262.267 167.541 262.261 167.583 262.285 167.631L264.985 173.445C265.009 173.493 265.021 173.529 265.021 173.553C265.021 173.649 264.955 173.697 264.823 173.697H263.077C262.957 173.697 262.873 173.643 262.825 173.535L260.863 168.963C260.851 168.939 260.827 168.927 260.791 168.927C260.767 168.915 260.749 168.921 260.737 168.945L259.297 170.601C259.273 170.649 259.261 170.691 259.261 170.727V173.481C259.261 173.541 259.237 173.595 259.189 173.643C259.153 173.679 259.105 173.697 259.045 173.697H257.389Z" fill="#090422"/>
<rect x="535" y="339.086" width="107" height="107.915" rx="53.5" fill="white" fill-opacity="0.1"/>
<g clip-path="url(#clip1_2427_1778)">
<path d="M571.292 392.537C571.292 393.306 572.425 394.646 575.053 395.961C578.455 397.662 583.281 398.683 588.5 398.683C593.719 398.683 598.545 397.662 601.947 395.961C604.575 394.646 605.708 393.306 605.708 392.537V387.2C601.652 389.707 595.45 391.308 588.5 391.308C581.55 391.308 575.348 389.705 571.292 387.2V392.537ZM605.708 399.491C601.652 401.999 595.45 403.599 588.5 403.599C581.55 403.599 575.348 401.996 571.292 399.491V404.828C571.292 405.598 572.425 406.938 575.053 408.253C578.455 409.954 583.281 410.974 588.5 410.974C593.719 410.974 598.545 409.954 601.947 408.253C604.575 406.938 605.708 405.598 605.708 404.828V399.491ZM566.375 404.828V380.245C566.375 374.136 576.282 369.183 588.5 369.183C600.718 369.183 610.625 374.136 610.625 380.245V404.828C610.625 410.937 600.718 415.891 588.5 415.891C576.282 415.891 566.375 410.937 566.375 404.828ZM588.5 386.391C593.719 386.391 598.545 385.371 601.947 383.669C604.575 382.354 605.708 381.014 605.708 380.245C605.708 379.476 604.575 378.136 601.947 376.821C598.545 375.119 593.719 374.099 588.5 374.099C583.281 374.099 578.455 375.119 575.053 376.821C572.425 378.136 571.292 379.476 571.292 380.245C571.292 381.014 572.425 382.354 575.053 383.669C578.455 385.371 583.281 386.391 588.5 386.391Z" fill="white"/>
</g>
<g filter="url(#filter0_d_2427_1778)">
<path d="M403.538 371.094H275.043C270.624 371.094 267.043 374.676 267.043 379.094V411.564C267.043 415.982 270.624 419.564 275.043 419.564H393.592C395.714 419.564 397.749 418.721 399.249 417.221L409.195 407.275C410.696 405.775 411.538 403.74 411.538 401.618V379.094C411.538 374.676 407.957 371.094 403.538 371.094Z" fill="white" fill-opacity="0.1"/>
<path d="M275.043 372.094H403.538C407.404 372.094 410.538 375.228 410.538 379.094V401.618C410.538 403.474 409.801 405.255 408.488 406.568L398.542 416.514C397.229 417.827 395.449 418.564 393.592 418.564H275.043C271.177 418.564 268.043 415.43 268.043 411.564V379.094C268.043 375.228 271.177 372.094 275.043 372.094Z" stroke="#35C88A" stroke-width="2"/>
</g>
<path d="M317.92 402.473C316.984 402.473 316.168 402.323 315.472 402.023C314.776 401.723 314.236 401.303 313.852 400.763C313.48 400.223 313.294 399.587 313.294 398.855V398.405C313.294 398.345 313.312 398.297 313.348 398.261C313.396 398.213 313.45 398.189 313.51 398.189H315.112C315.172 398.189 315.22 398.213 315.256 398.261C315.304 398.297 315.328 398.345 315.328 398.405V398.747C315.328 399.299 315.574 399.761 316.066 400.133C316.558 400.493 317.23 400.673 318.082 400.673C318.814 400.673 319.366 400.517 319.738 400.205C320.11 399.893 320.296 399.491 320.296 398.999C320.296 398.663 320.194 398.381 319.99 398.153C319.786 397.913 319.492 397.697 319.108 397.505C318.736 397.313 318.172 397.073 317.416 396.785C316.564 396.473 315.874 396.179 315.346 395.903C314.818 395.627 314.374 395.255 314.014 394.787C313.666 394.307 313.492 393.713 313.492 393.005C313.492 391.949 313.876 391.115 314.644 390.503C315.412 389.891 316.438 389.585 317.722 389.585C318.622 389.585 319.414 389.741 320.098 390.053C320.794 390.365 321.334 390.803 321.718 391.367C322.102 391.919 322.294 392.561 322.294 393.293V393.599C322.294 393.659 322.27 393.713 322.222 393.761C322.186 393.797 322.138 393.815 322.078 393.815H320.458C320.398 393.815 320.344 393.797 320.296 393.761C320.26 393.713 320.242 393.659 320.242 393.599V393.401C320.242 392.837 320.008 392.363 319.54 391.979C319.084 391.583 318.448 391.385 317.632 391.385C316.972 391.385 316.456 391.523 316.084 391.799C315.724 392.075 315.544 392.465 315.544 392.969C315.544 393.329 315.64 393.623 315.832 393.851C316.024 394.079 316.312 394.289 316.696 394.481C317.08 394.661 317.674 394.895 318.478 395.183C319.33 395.507 320.008 395.801 320.512 396.065C321.028 396.329 321.466 396.701 321.826 397.181C322.198 397.649 322.384 398.237 322.384 398.945C322.384 400.025 321.982 400.883 321.178 401.519C320.386 402.155 319.3 402.473 317.92 402.473ZM330.125 393.347C330.125 393.287 330.143 393.239 330.179 393.203C330.227 393.155 330.281 393.131 330.341 393.131H331.979C332.039 393.131 332.087 393.155 332.123 393.203C332.171 393.239 332.195 393.287 332.195 393.347V402.113C332.195 402.173 332.171 402.227 332.123 402.275C332.087 402.311 332.039 402.329 331.979 402.329H330.341C330.281 402.329 330.227 402.311 330.179 402.275C330.143 402.227 330.125 402.173 330.125 402.113V401.537C330.125 401.501 330.113 401.477 330.089 401.465C330.065 401.453 330.041 401.465 330.017 401.501C329.525 402.137 328.787 402.455 327.803 402.455C326.891 402.455 326.123 402.191 325.499 401.663C324.887 401.135 324.581 400.385 324.581 399.413V393.347C324.581 393.287 324.599 393.239 324.635 393.203C324.683 393.155 324.737 393.131 324.797 393.131H326.453C326.513 393.131 326.561 393.155 326.597 393.203C326.645 393.239 326.669 393.287 326.669 393.347V398.819C326.669 399.383 326.813 399.833 327.101 400.169C327.401 400.505 327.815 400.673 328.343 400.673C328.883 400.673 329.315 400.505 329.639 400.169C329.963 399.833 330.125 399.383 330.125 398.819V393.347ZM338.662 402.473C337.738 402.473 336.94 402.239 336.268 401.771C335.596 401.291 335.128 400.649 334.864 399.845C334.672 399.305 334.576 398.585 334.576 397.685C334.576 396.821 334.672 396.113 334.864 395.561C335.116 394.769 335.578 394.145 336.25 393.689C336.934 393.221 337.738 392.987 338.662 392.987C339.598 392.987 340.414 393.221 341.11 393.689C341.806 394.157 342.268 394.745 342.496 395.453C342.556 395.645 342.598 395.837 342.622 396.029V396.065C342.622 396.185 342.556 396.257 342.424 396.281L340.804 396.515H340.768C340.66 396.515 340.588 396.455 340.552 396.335C340.552 396.275 340.546 396.227 340.534 396.191C340.51 396.095 340.486 396.011 340.462 395.939C340.354 395.603 340.138 395.327 339.814 395.111C339.49 394.895 339.106 394.787 338.662 394.787C338.206 394.787 337.816 394.907 337.492 395.147C337.18 395.375 336.97 395.693 336.862 396.101C336.742 396.485 336.682 397.019 336.682 397.703C336.682 398.363 336.736 398.897 336.844 399.305C336.964 399.725 337.18 400.061 337.492 400.313C337.804 400.553 338.194 400.673 338.662 400.673C339.118 400.673 339.508 400.559 339.832 400.331C340.168 400.091 340.384 399.773 340.48 399.377C340.492 399.353 340.498 399.323 340.498 399.287C340.51 399.275 340.516 399.257 340.516 399.233C340.552 399.089 340.636 399.029 340.768 399.053L342.388 399.305C342.448 399.317 342.496 399.347 342.532 399.395C342.58 399.431 342.598 399.485 342.586 399.557C342.55 399.749 342.52 399.887 342.496 399.971C342.268 400.739 341.806 401.351 341.11 401.807C340.414 402.251 339.598 402.473 338.662 402.473ZM348.536 402.473C347.612 402.473 346.814 402.239 346.142 401.771C345.47 401.291 345.002 400.649 344.738 399.845C344.546 399.305 344.45 398.585 344.45 397.685C344.45 396.821 344.546 396.113 344.738 395.561C344.99 394.769 345.452 394.145 346.124 393.689C346.808 393.221 347.612 392.987 348.536 392.987C349.472 392.987 350.288 393.221 350.984 393.689C351.68 394.157 352.142 394.745 352.37 395.453C352.43 395.645 352.472 395.837 352.496 396.029V396.065C352.496 396.185 352.43 396.257 352.298 396.281L350.678 396.515H350.642C350.534 396.515 350.462 396.455 350.426 396.335C350.426 396.275 350.42 396.227 350.408 396.191C350.384 396.095 350.36 396.011 350.336 395.939C350.228 395.603 350.012 395.327 349.688 395.111C349.364 394.895 348.98 394.787 348.536 394.787C348.08 394.787 347.69 394.907 347.366 395.147C347.054 395.375 346.844 395.693 346.736 396.101C346.616 396.485 346.556 397.019 346.556 397.703C346.556 398.363 346.61 398.897 346.718 399.305C346.838 399.725 347.054 400.061 347.366 400.313C347.678 400.553 348.068 400.673 348.536 400.673C348.992 400.673 349.382 400.559 349.706 400.331C350.042 400.091 350.258 399.773 350.354 399.377C350.366 399.353 350.372 399.323 350.372 399.287C350.384 399.275 350.39 399.257 350.39 399.233C350.426 399.089 350.51 399.029 350.642 399.053L352.262 399.305C352.322 399.317 352.37 399.347 352.406 399.395C352.454 399.431 352.472 399.485 352.46 399.557C352.424 399.749 352.394 399.887 352.37 399.971C352.142 400.739 351.68 401.351 350.984 401.807C350.288 402.251 349.472 402.473 348.536 402.473ZM362.335 396.695C362.383 396.995 362.407 397.331 362.407 397.703L362.389 398.261C362.389 398.405 362.317 398.477 362.173 398.477H356.539C356.479 398.477 356.449 398.507 356.449 398.567C356.485 398.963 356.539 399.233 356.611 399.377C356.899 400.241 357.601 400.679 358.717 400.691C359.533 400.691 360.181 400.355 360.661 399.683C360.709 399.611 360.769 399.575 360.841 399.575C360.889 399.575 360.931 399.593 360.967 399.629L362.083 400.547C362.191 400.631 362.209 400.727 362.137 400.835C361.765 401.363 361.267 401.771 360.643 402.059C360.031 402.347 359.347 402.491 358.591 402.491C357.655 402.491 356.857 402.281 356.197 401.861C355.549 401.441 355.075 400.853 354.775 400.097C354.499 399.449 354.361 398.549 354.361 397.397C354.361 396.701 354.433 396.137 354.577 395.705C354.817 394.865 355.267 394.205 355.927 393.725C356.599 393.233 357.403 392.987 358.339 392.987C360.703 392.987 362.035 394.223 362.335 396.695ZM358.339 394.787C357.895 394.787 357.523 394.901 357.223 395.129C356.935 395.345 356.731 395.651 356.611 396.047C356.539 396.251 356.491 396.515 356.467 396.839C356.443 396.899 356.467 396.929 356.539 396.929H360.193C360.253 396.929 360.283 396.899 360.283 396.839C360.259 396.539 360.223 396.311 360.175 396.155C360.067 395.723 359.851 395.387 359.527 395.147C359.215 394.907 358.819 394.787 358.339 394.787ZM367.994 402.437C367.238 402.437 366.572 402.329 365.996 402.113C365.432 401.885 364.994 401.579 364.682 401.195C364.37 400.799 364.214 400.361 364.214 399.881V399.719C364.214 399.659 364.232 399.611 364.268 399.575C364.316 399.527 364.37 399.503 364.43 399.503H366.014C366.074 399.503 366.122 399.527 366.158 399.575C366.206 399.611 366.23 399.659 366.23 399.719V399.755C366.23 400.055 366.392 400.319 366.716 400.547C367.052 400.763 367.472 400.871 367.976 400.871C368.456 400.871 368.846 400.775 369.146 400.583C369.446 400.379 369.596 400.127 369.596 399.827C369.596 399.551 369.47 399.347 369.218 399.215C368.978 399.071 368.582 398.921 368.03 398.765L367.346 398.549C366.734 398.369 366.218 398.177 365.798 397.973C365.378 397.769 365.024 397.493 364.736 397.145C364.448 396.785 364.304 396.329 364.304 395.777C364.304 394.937 364.634 394.271 365.294 393.779C365.954 393.275 366.824 393.023 367.904 393.023C368.636 393.023 369.278 393.143 369.83 393.383C370.382 393.611 370.808 393.935 371.108 394.355C371.408 394.763 371.558 395.231 371.558 395.759C371.558 395.819 371.534 395.873 371.486 395.921C371.45 395.957 371.402 395.975 371.342 395.975H369.812C369.752 395.975 369.698 395.957 369.65 395.921C369.614 395.873 369.596 395.819 369.596 395.759C369.596 395.447 369.44 395.189 369.128 394.985C368.828 394.769 368.414 394.661 367.886 394.661C367.418 394.661 367.034 394.751 366.734 394.931C366.446 395.099 366.302 395.339 366.302 395.651C366.302 395.939 366.44 396.161 366.716 396.317C367.004 396.461 367.478 396.623 368.138 396.803L368.534 396.911C369.17 397.103 369.704 397.301 370.136 397.505C370.568 397.697 370.934 397.973 371.234 398.333C371.534 398.681 371.684 399.137 371.684 399.701C371.684 400.553 371.348 401.225 370.676 401.717C370.004 402.197 369.11 402.437 367.994 402.437ZM377.096 402.437C376.34 402.437 375.674 402.329 375.098 402.113C374.534 401.885 374.096 401.579 373.784 401.195C373.472 400.799 373.316 400.361 373.316 399.881V399.719C373.316 399.659 373.334 399.611 373.37 399.575C373.418 399.527 373.472 399.503 373.532 399.503H375.116C375.176 399.503 375.224 399.527 375.26 399.575C375.308 399.611 375.332 399.659 375.332 399.719V399.755C375.332 400.055 375.494 400.319 375.818 400.547C376.154 400.763 376.574 400.871 377.078 400.871C377.558 400.871 377.948 400.775 378.248 400.583C378.548 400.379 378.698 400.127 378.698 399.827C378.698 399.551 378.572 399.347 378.32 399.215C378.08 399.071 377.684 398.921 377.132 398.765L376.448 398.549C375.836 398.369 375.32 398.177 374.9 397.973C374.48 397.769 374.126 397.493 373.838 397.145C373.55 396.785 373.406 396.329 373.406 395.777C373.406 394.937 373.736 394.271 374.396 393.779C375.056 393.275 375.926 393.023 377.006 393.023C377.738 393.023 378.38 393.143 378.932 393.383C379.484 393.611 379.91 393.935 380.21 394.355C380.51 394.763 380.66 395.231 380.66 395.759C380.66 395.819 380.636 395.873 380.588 395.921C380.552 395.957 380.504 395.975 380.444 395.975H378.914C378.854 395.975 378.8 395.957 378.752 395.921C378.716 395.873 378.698 395.819 378.698 395.759C378.698 395.447 378.542 395.189 378.23 394.985C377.93 394.769 377.516 394.661 376.988 394.661C376.52 394.661 376.136 394.751 375.836 394.931C375.548 395.099 375.404 395.339 375.404 395.651C375.404 395.939 375.542 396.161 375.818 396.317C376.106 396.461 376.58 396.623 377.24 396.803L377.636 396.911C378.272 397.103 378.806 397.301 379.238 397.505C379.67 397.697 380.036 397.973 380.336 398.333C380.636 398.681 380.786 399.137 380.786 399.701C380.786 400.553 380.45 401.225 379.778 401.717C379.106 402.197 378.212 402.437 377.096 402.437Z" fill="white"/>
<path d="M279.273 396.812L284.773 402.312L295.273 391.812" stroke="#35C88A" stroke-width="2"/>
<defs>
<filter id="filter0_d_2427_1778" x="261.043" y="365.094" width="156.496" height="60.4701" filterUnits="userSpaceOnUse" color-interpolation-filters="sRGB">
<feFlood flood-opacity="0" result="BackgroundImageFix"/>
<feColorMatrix in="SourceAlpha" type="matrix" values="0 0 0 0 0 0 0 0 0 0 0 0 0 0 0 0 0 0 127 0" result="hardAlpha"/>
<feOffset/>
<feGaussianBlur stdDeviation="3"/>
<feColorMatrix type="matrix" values="0 0 0 0 0.0328299 0 0 0 0 0.114046 0 0 0 0 0.254167 0 0 0 0.06 0"/>
<feBlend mode="normal" in2="BackgroundImageFix" result="effect1_dropShadow_2427_1778"/>
<feBlend mode="normal" in="SourceGraphic" in2="effect1_dropShadow_2427_1778" result="shape"/>
</filter>
<linearGradient id="paint0_linear_2427_1778" x1="114.779" y1="163.496" x2="158.455" y2="163.496" gradientUnits="userSpaceOnUse">
<stop stop-color="#91EBFF"/>
<stop offset="1" stop-color="#8497FF"/>
</linearGradient>
<linearGradient id="paint1_linear_2427_1778" x1="433.522" y1="394.872" x2="529.134" y2="394.872" gradientUnits="userSpaceOnUse">
<stop stop-color="#91EBFF"/>
<stop offset="1" stop-color="#8497FF"/>
</linearGradient>
<linearGradient id="paint2_linear_2427_1778" x1="227.718" y1="214.71" x2="320.238" y2="314.303" gradientUnits="userSpaceOnUse">
<stop stop-color="#91EBFF"/>
<stop offset="1" stop-color="#8497FF"/>
</linearGradient>
<linearGradient id="paint3_linear_2427_1778" x1="337.919" y1="57.4104" x2="337.919" y2="279.641" gradientUnits="userSpaceOnUse">
<stop stop-color="#91EBFF"/>
<stop offset="1" stop-color="#8497FF"/>
</linearGradient>
<linearGradient id="paint4_linear_2427_1778" x1="175.59" y1="166.697" x2="280.761" y2="166.697" gradientUnits="userSpaceOnUse">
<stop stop-color="#91EBFF"/>
<stop offset="1" stop-color="#8497FF"/>
</linearGradient>
<clipPath id="clip0_2427_1778">
<rect width="60" height="60" fill="white" transform="translate(24.8718 137.154)"/>
</clipPath>
<clipPath id="clip1_2427_1778">
<rect width="59" height="59" fill="white" transform="translate(559 363.543)"/>
</clipPath>
</defs>
</svg>
